<svg width="151" height="25" viewBox="0 0 151 25" fill="none" xmlns="http://www.w3.org/2000/svg">
<path d="M13.7188 14.1406H4.71875V20.2344H15.2812V24H0.03125V1.25H15.25V5.04688H4.71875V10.4688H13.7188V14.1406ZM23 20.2344H34.4688V24H17.1406V21.25L28.3906 5.04688H17.1562V1.25H34.2188V3.9375L23 20.2344ZM45.2812 11.5L50.0156 1.25H55.1406L47.6719 15.75V24H42.9062V15.75L35.4375 1.25H40.5781L45.2812 11.5ZM61.9062 20.2344H71.8594V24H57.2188V1.25H61.9062V20.2344ZM88.25 14.1406H79.25V20.2344H89.8125V24H74.5625V1.25H89.7812V5.04688H79.25V10.4688H88.25V14.1406ZM110.562 21.125C109.719 22.1354 108.526 22.9219 106.984 23.4844C105.443 24.0365 103.734 24.3125 101.859 24.3125C99.8906 24.3125 98.1615 23.8854 96.6719 23.0312C95.1927 22.1667 94.0469 20.9167 93.2344 19.2812C92.4323 17.6458 92.0208 15.724 92 13.5156V11.9688C92 9.69792 92.3802 7.73438 93.1406 6.07812C93.9115 4.41146 95.0156 3.14062 96.4531 2.26562C97.901 1.38021 99.5938 0.9375 101.531 0.9375C104.229 0.9375 106.339 1.58333 107.859 2.875C109.38 4.15625 110.281 6.02604 110.562 8.48438H106C105.792 7.18229 105.328 6.22917 104.609 5.625C103.901 5.02083 102.922 4.71875 101.672 4.71875C100.078 4.71875 98.8646 5.31771 98.0312 6.51562C97.1979 7.71354 96.776 9.49479 96.7656 11.8594V13.3125C96.7656 15.6979 97.2188 17.5 98.125 18.7188C99.0312 19.9375 100.359 20.5469 102.109 20.5469C103.87 20.5469 105.125 20.1719 105.875 19.4219V15.5H101.609V12.0469H110.562V21.125ZM127.219 19.3125H119L117.438 24H112.453L120.922 1.25H125.266L133.781 24H128.797L127.219 19.3125ZM120.266 15.5156H125.953L123.094 7L120.266 15.5156ZM140.594 20.2344H150.547V24H135.906V1.25H140.594V20.2344Z" fill="white"/>
</svg>
