<!-- <svg xmlns="http://www.w3.org/2000/svg" viewBox="0 0 781.69 193.24"><defs><style>.cls-1{fill:#396ae8;}.cls-2{fill:#ff5a60;}.cls-3{font-size:49.35px;fill:#808285;font-family:GaramondNo4CyrTCY-LighItal, GaramondNo4CyrTCY LighItal;font-style:italic;}</style></defs><g id="Layer_2" data-name="Layer 2"><g id="Layer_1-2" data-name="Layer 1"><path class="cls-1" d="M156.5,76.07V74.9C156.5,50.67,173.68,35,196,35c19.83,0,37.45,11.6,37.45,39.07v5.87H178.09c.58,12.78,7.49,20.12,19.09,20.12,9.84,0,14.68-4.26,16-10.72h20.12c-2.5,16.6-15.72,25.85-36.72,25.85C173.39,115.14,156.5,100.6,156.5,76.07Zm56.25-9.25C212,55.22,206.14,49.64,196,49.64c-9.54,0-16,6.31-17.62,17.18Z"/><path class="cls-1" d="M239.32,111.17l37.89-58H243.14V36.72h64.92v2.64L269.87,97.08h36.72v16.44H239.32Z"/><path class="cls-1" d="M343.89,105.74l-30.55-69h22.91L354.9,82.83l17.18-46.11H392.5l-41.56,103H330.37Z"/><path class="cls-2" d="M407.18,0h12.33V113.52H407.18Z"/><path class="cls-2" d="M438.75,75.93V74.75c0-23.2,14.84-39.36,36-39.36,17.77,0,34.52,10.73,34.52,38.19v4H451.38c.59,17.48,9,27.17,24.67,27.17,11.9,0,18.8-4.4,20.42-13.36h12.19c-2.64,15.42-15.42,23.5-32.75,23.5C454.17,114.85,438.75,99.57,438.75,75.93Zm58-8.23c-1.17-15.86-9.4-22.17-22-22.17S453.88,54,451.82,67.7Z"/><path class="cls-2" d="M523.78,117.93h12.49c1.76,8.81,9.1,13.36,22.17,13.36,15.13,0,24.67-7.19,24.67-23.64V96.49c-4.4,7.49-14.83,14.54-26,14.54-20.12,0-35-15.28-35-36.42v-1c0-20.86,14.68-38.19,35.83-38.19,12.78,0,20.71,6.17,25.11,13.66V36.72H595.3v71.66c-.14,22.33-15.27,33.2-36.71,33.2C535.82,141.58,525.84,130.85,523.78,117.93Zm59.77-44.21v-1c0-17.19-9.39-27.17-24.37-27.17C543.9,45.53,534.8,56.84,534.8,73v1.17c0,16.75,10.72,26.73,23.64,26.73C572.69,100.89,583.55,90.91,583.55,73.72Z"/><path class="cls-2" d="M613.66,92.23c0-17.77,18.8-23.79,38.48-23.79h11V62.86c0-12.19-4.7-17.33-16.45-17.33-10.57,0-16.45,4.4-17.62,13.8H616.89c1.61-17.47,15.57-23.94,30.4-23.94s28.05,6,28.05,27.47v50.66H663.15v-9.69c-5.73,7.2-12.63,11-23.94,11C625,114.85,613.66,107.94,613.66,92.23Zm49.49-5.58V77.1H652.58c-15.42,0-26.73,3.82-26.73,15.13,0,7.93,3.82,12.92,14.54,12.92C653.31,105.15,663.15,98.54,663.15,86.65Z"/><path class="cls-2" d="M699.57,0H711.9V113.52H699.57Z"/><rect class="cls-1" y="8.99" width="123.59" height="29.72"/><rect class="cls-1" x="49.96" y="55.96" width="73.63" height="29.72"/><rect class="cls-2" y="55.96" width="40.49" height="76.62"/><rect class="cls-2" x="49.96" y="102.86" width="73.63" height="29.72"/><text class="cls-3" transform="translate(360.18 180.9)">legal made simple</text></g></g></svg> -->
<svg xmlns="http://www.w3.org/2000/svg" viewBox="0 0 781.69 193.24"><defs><style>.cls-1{fill:#396ae8;}.cls-2{fill:#ff5a60;}.cls-3{font-size:44px;fill:#808285;font-family:GaramondNo4CyrTCY-LighItal, GaramondNo4CyrTCY LighItal;font-style:italic;}</style></defs><g id="Layer_2" data-name="Layer 2"><g id="Layer_1-2" data-name="Layer 1"><path class="cls-1" d="M156.5,76.07V74.9C156.5,50.67,173.68,35,196,35c19.83,0,37.45,11.6,37.45,39.07v5.87H178.09c.58,12.78,7.49,20.12,19.09,20.12,9.84,0,14.68-4.26,16-10.72h20.12c-2.5,16.6-15.72,25.85-36.72,25.85C173.39,115.14,156.5,100.6,156.5,76.07Zm56.25-9.25C212,55.22,206.14,49.64,196,49.64c-9.54,0-16,6.31-17.62,17.18Z"/><path class="cls-1" d="M239.32,111.17l37.89-58H243.14V36.72h64.92v2.64L269.87,97.08h36.72v16.44H239.32Z"/><path class="cls-1" d="M343.89,105.74l-30.55-69h22.91L354.9,82.83l17.18-46.11H392.5l-41.56,103H330.37Z"/><path class="cls-2" d="M407.18,0h12.33V113.52H407.18Z"/><path class="cls-2" d="M438.75,75.93V74.75c0-23.2,14.84-39.36,36-39.36,17.77,0,34.52,10.73,34.52,38.19v4H451.38c.59,17.48,9,27.17,24.67,27.17,11.9,0,18.8-4.4,20.42-13.36h12.19c-2.64,15.42-15.42,23.5-32.75,23.5C454.17,114.85,438.75,99.57,438.75,75.93Zm58-8.23c-1.17-15.86-9.4-22.17-22-22.17S453.88,54,451.82,67.7Z"/><path class="cls-2" d="M523.78,117.93h12.49c1.76,8.81,9.1,13.36,22.17,13.36,15.13,0,24.67-7.19,24.67-23.64V96.49c-4.4,7.49-14.83,14.54-26,14.54-20.12,0-35-15.28-35-36.42v-1c0-20.86,14.68-38.19,35.83-38.19,12.78,0,20.71,6.17,25.11,13.66V36.72H595.3v71.66c-.14,22.33-15.27,33.2-36.71,33.2C535.82,141.58,525.84,130.85,523.78,117.93Zm59.77-44.21v-1c0-17.19-9.39-27.17-24.37-27.17C543.9,45.53,534.8,56.84,534.8,73v1.17c0,16.75,10.72,26.73,23.64,26.73C572.69,100.89,583.55,90.91,583.55,73.72Z"/><path class="cls-2" d="M613.66,92.23c0-17.77,18.8-23.79,38.48-23.79h11V62.86c0-12.19-4.7-17.33-16.45-17.33-10.57,0-16.45,4.4-17.62,13.8H616.89c1.61-17.47,15.57-23.94,30.4-23.94s28.05,6,28.05,27.47v50.66H663.15v-9.69c-5.73,7.2-12.63,11-23.94,11C625,114.85,613.66,107.94,613.66,92.23Zm49.49-5.58V77.1H652.58c-15.42,0-26.73,3.82-26.73,15.13,0,7.93,3.82,12.92,14.54,12.92C653.31,105.15,663.15,98.54,663.15,86.65Z"/><path class="cls-2" d="M699.57,0H711.9V113.52H699.57Z"/><rect class="cls-1" y="8.99" width="123.59" height="29.72"/><rect class="cls-1" x="49.96" y="55.96" width="73.63" height="29.72"/><rect class="cls-2" y="55.96" width="40.49" height="76.62"/><rect class="cls-2" x="49.96" y="102.86" width="73.63" height="29.72"/><text class="cls-3" transform="translate(398.18 180.9)">legal made simple</text></g></g></svg>