<svg width="38" height="38" viewBox="0 0 38 38" fill="none" xmlns="http://www.w3.org/2000/svg">
<path d="M26.9167 9.50033C28.6656 9.50033 30.0833 8.08256 30.0833 6.33366C30.0833 4.58476 28.6656 3.16699 26.9167 3.16699C25.1678 3.16699 23.75 4.58476 23.75 6.33366C23.75 8.08256 25.1678 9.50033 26.9167 9.50033Z" fill="#8993A4"/>
<path d="M24.9803 17.3675C25.3437 17.9092 25.8651 18.3258 26.4735 18.5609C27.082 18.796 27.748 18.8382 28.3813 18.6817L33.6316 17.3691L32.8668 14.2974L27.6165 15.61L25.4331 12.3373C24.9666 11.6383 24.2426 11.1523 23.4191 10.9851L17.3296 9.76595C16.6483 9.62923 15.941 9.7206 15.3169 10.0259C14.6928 10.3313 14.1865 10.8336 13.8763 11.4554L11.2512 16.7057L14.0838 18.1228L16.7089 12.8709L19.8233 13.4947L11.7705 26.9166H4.75V30.0833H11.7705C12.8757 30.0833 13.9159 29.4943 14.4859 28.5459L17.5228 23.4855L25.707 25.1227L28.5823 33.7503L31.5843 32.748L28.7106 24.122C28.5332 23.5924 28.2194 23.1189 27.8008 22.7492C27.3822 22.3795 26.8735 22.1267 26.3261 22.0162L21.5143 21.0551L24.32 16.3779L24.9803 17.3675Z" fill="#8993A4"/>
</svg>
