<svg width="44" height="33" viewBox="0 0 44 33" fill="none" xmlns="http://www.w3.org/2000/svg">
<path d="M0.601562 5.6991C0.601563 4.2669 1.17053 2.89323 2.18331 1.88045C3.19609 0.867676 4.56971 0.298706 6.00199 0.298706H38.4045C39.8368 0.298706 41.2104 0.867676 42.2232 1.88045C43.236 2.89323 43.805 4.2669 43.805 5.6991V27.3008C43.805 28.7331 43.236 30.1067 42.2232 31.1195C41.2104 32.1323 39.8368 32.7013 38.4045 32.7013H6.00199C4.56971 32.7013 3.19609 32.1323 2.18331 31.1195C1.17053 30.1067 0.601563 28.7331 0.601562 27.3008V5.6991ZM6.00199 2.99892C5.28585 2.99892 4.59904 3.28341 4.09265 3.78979C3.58626 4.2962 3.30178 4.983 3.30178 5.6991V8.3993H41.1048V5.6991C41.1048 4.983 40.8203 4.2962 40.3139 3.78979C39.8075 3.28341 39.1207 2.99892 38.4045 2.99892H6.00199ZM41.1048 13.7998H3.30178V27.3008C3.30178 28.017 3.58626 28.7038 4.09265 29.2102C4.59904 29.7166 5.28585 30.0011 6.00199 30.0011H38.4045C39.1207 30.0011 39.8075 29.7166 40.3139 29.2102C40.8203 28.7038 41.1048 28.017 41.1048 27.3008V13.7998Z" fill="#0B468C"/>
<path d="M6.00195 21.9004C6.00195 21.1843 6.28644 20.4975 6.79283 19.9911C7.29922 19.4847 7.98603 19.2002 8.70217 19.2002H11.4024C12.1185 19.2002 12.8053 19.4847 13.3117 19.9911C13.8181 20.4975 14.1026 21.1843 14.1026 21.9004V24.6006C14.1026 25.3168 13.8181 26.0036 13.3117 26.51C12.8053 27.0163 12.1185 27.3008 11.4024 27.3008H8.70217C7.98603 27.3008 7.29922 27.0163 6.79283 26.51C6.28644 26.0036 6.00195 25.3168 6.00195 24.6006V21.9004Z" fill="#0B468C"/>
</svg>
