<svg width="172" height="45" viewBox="0 0 172 45" fill="none" xmlns="http://www.w3.org/2000/svg">
<g clip-path="url(#clip0)">
<path d="M0.601562 11.6991C0.601563 10.2669 1.17053 8.89323 2.18331 7.88045C3.19609 6.86768 4.56971 6.29871 6.00199 6.29871H38.4045C39.8368 6.29871 41.2104 6.86768 42.2232 7.88045C43.236 8.89323 43.805 10.2669 43.805 11.6991V33.3008C43.805 34.7331 43.236 36.1067 42.2232 37.1195C41.2104 38.1323 39.8368 38.7013 38.4045 38.7013H6.00199C4.56971 38.7013 3.19609 38.1323 2.18331 37.1195C1.17053 36.1067 0.601563 34.7331 0.601562 33.3008V11.6991ZM6.00199 8.99892C5.28585 8.99892 4.59904 9.28341 4.09265 9.78979C3.58626 10.2962 3.30178 10.983 3.30178 11.6991V14.3993H41.1048V11.6991C41.1048 10.983 40.8203 10.2962 40.3139 9.78979C39.8075 9.28341 39.1207 8.99892 38.4045 8.99892H6.00199ZM41.1048 19.7998H3.30178V33.3008C3.30178 34.017 3.58626 34.7038 4.09265 35.2102C4.59904 35.7166 5.28585 36.0011 6.00199 36.0011H38.4045C39.1207 36.0011 39.8075 35.7166 40.3139 35.2102C40.8203 34.7038 41.1048 34.017 41.1048 33.3008V19.7998Z" fill="#0B468C"/>
<path d="M6.00195 27.9004C6.00195 27.1843 6.28644 26.4975 6.79283 25.9911C7.29922 25.4847 7.98603 25.2002 8.70217 25.2002H11.4024C12.1185 25.2002 12.8053 25.4847 13.3117 25.9911C13.8181 26.4975 14.1026 27.1843 14.1026 27.9004V30.6006C14.1026 31.3168 13.8181 32.0036 13.3117 32.51C12.8053 33.0163 12.1185 33.3008 11.4024 33.3008H8.70217C7.98603 33.3008 7.29922 33.0163 6.79283 32.51C6.28644 32.0036 6.00195 31.3168 6.00195 30.6006V27.9004Z" fill="#0B468C"/>
</g>
<path d="M60.3238 29.2126C61.8077 29.2126 63.0463 28.8416 64.0395 28.0997C65.0387 27.3518 65.7388 26.3466 66.1396 25.0841L63.9587 24.4828C63.7074 25.3205 63.2796 25.9786 62.6753 26.4573C62.071 26.936 61.2872 27.1753 60.3238 27.1753C59.0255 27.1753 58.0472 26.7475 57.389 25.8919C56.7368 25.0303 56.4107 23.8934 56.4107 22.4814C56.4167 21.0693 56.7458 19.9355 57.398 19.0798C58.0502 18.2182 59.0255 17.7874 60.3238 17.7874C61.2872 17.7874 62.071 18.0268 62.6753 18.5054C63.2796 18.9841 63.7074 19.6423 63.9587 20.4799L66.1396 19.8786C65.7388 18.6101 65.0387 17.6049 64.0395 16.863C63.0463 16.1211 61.8077 15.7501 60.3238 15.7501C59.0374 15.7501 57.9305 16.0343 57.0031 16.6027C56.0817 17.1652 55.3726 17.952 54.876 18.9632C54.3854 19.9684 54.1401 21.1411 54.1401 22.4814C54.1401 23.8156 54.3854 24.9884 54.876 25.9996C55.3726 27.0107 56.0817 27.8005 57.0031 28.369C57.9305 28.9314 59.0374 29.2126 60.3238 29.2126ZM68.1102 28.9434H70.2822V24.0161C70.2822 23.4537 70.3839 22.954 70.5873 22.5173C70.7967 22.0805 71.1228 21.7424 71.5656 21.5031C71.8648 21.3296 72.1998 21.2279 72.5708 21.1979C72.9418 21.162 73.2738 21.186 73.567 21.2697V19.2504C73.1302 19.1845 72.6815 19.1935 72.2208 19.2773C71.76 19.3551 71.3502 19.5166 70.9912 19.7619C70.7878 19.8876 70.6053 20.0402 70.4437 20.2197C70.2822 20.3932 70.1416 20.5876 70.0219 20.803V19.2504H68.1102V28.9434ZM79.5111 29.2126C80.4445 29.2126 81.2972 28.9733 82.069 28.4946C82.8468 28.01 83.4212 27.3279 83.7922 26.4483L81.6562 25.8021C81.2254 26.7235 80.4685 27.1843 79.3855 27.1843C78.6495 27.1843 78.0691 26.9719 77.6443 26.547C77.2195 26.1162 76.9652 25.5 76.8815 24.6982H83.8999C83.9837 23.5314 83.855 22.5203 83.514 21.6646C83.1729 20.809 82.6494 20.1479 81.9434 19.6812C81.2433 19.2145 80.3907 18.9811 79.3855 18.9811C78.4341 18.9811 77.5965 19.1965 76.8725 19.6273C76.1485 20.0521 75.5831 20.6564 75.1762 21.4403C74.7693 22.2241 74.5659 23.1455 74.5659 24.2046C74.5659 25.1858 74.7723 26.0534 75.1852 26.8073C75.604 27.5612 76.1844 28.1506 76.9263 28.5754C77.6683 29.0002 78.5299 29.2126 79.5111 29.2126ZM79.4752 20.8748C80.1454 20.8748 80.6599 21.0513 81.0189 21.4044C81.3839 21.7514 81.6143 22.3049 81.71 23.0647H76.9353C77.1926 21.6048 78.0392 20.8748 79.4752 20.8748ZM89.7886 29.2126C90.363 29.2126 90.8806 29.1259 91.3413 28.9523C91.802 28.7788 92.2059 28.5365 92.5529 28.2254V28.9434H94.4646V16.0194H92.2837V19.726C91.9606 19.4867 91.5986 19.3042 91.1977 19.1786C90.7968 19.0469 90.354 18.9811 89.8694 18.9811C88.9539 18.9811 88.1582 19.2025 87.482 19.6453C86.8119 20.088 86.2914 20.6953 85.9204 21.4672C85.5494 22.239 85.3639 23.1156 85.3639 24.0969C85.3639 25.0662 85.5464 25.9367 85.9114 26.7086C86.2764 27.4804 86.791 28.0907 87.4551 28.5395C88.1193 28.9882 88.8971 29.2126 89.7886 29.2126ZM90.1207 27.274C89.5583 27.274 89.0946 27.1334 88.7296 26.8522C88.3646 26.565 88.0923 26.1821 87.9128 25.7034C87.7393 25.2247 87.6526 24.6892 87.6526 24.0969C87.6526 23.5105 87.7423 22.978 87.9218 22.4993C88.1073 22.0147 88.3855 21.6317 88.7565 21.3505C89.1334 21.0633 89.6121 20.9197 90.1925 20.9197C91.0182 20.9197 91.6165 21.2129 91.9875 21.7993C92.3644 22.3856 92.5529 23.1515 92.5529 24.0969C92.5529 25.0362 92.3644 25.8021 91.9875 26.3945C91.6165 26.9808 90.9943 27.274 90.1207 27.274ZM97.1605 17.7785H99.3234V15.795H97.1605V17.7785ZM97.1605 28.9434H99.3234V19.2504H97.1605V28.9434ZM107.693 28.9434V27.1304C107.089 27.2202 106.55 27.2441 106.078 27.2022C105.605 27.1603 105.261 26.9599 105.045 26.6009C104.932 26.4154 104.869 26.1761 104.857 25.8829C104.851 25.5837 104.848 25.2427 104.848 24.8597V20.9466H107.693V19.2504H104.848V16.5579H102.694V19.2504H100.935V20.9466H102.694V24.9854C102.694 25.5418 102.7 26.0385 102.712 26.4752C102.724 26.906 102.841 27.3309 103.062 27.7497C103.313 28.2104 103.681 28.5485 104.166 28.7639C104.651 28.9733 105.198 29.084 105.808 29.0959C106.425 29.1139 107.053 29.063 107.693 28.9434ZM118.837 29.2126C120.32 29.2126 121.559 28.8416 122.552 28.0997C123.551 27.3518 124.252 26.3466 124.652 25.0841L122.472 24.4828C122.22 25.3205 121.792 25.9786 121.188 26.4573C120.584 26.936 119.8 27.1753 118.837 27.1753C117.538 27.1753 116.56 26.7475 115.902 25.8919C115.25 25.0303 114.924 23.8934 114.924 22.4814C114.93 21.0693 115.259 19.9355 115.911 19.0798C116.563 18.2182 117.538 17.7874 118.837 17.7874C119.8 17.7874 120.584 18.0268 121.188 18.5054C121.792 18.9841 122.22 19.6423 122.472 20.4799L124.652 19.8786C124.252 18.6101 123.551 17.6049 122.552 16.863C121.559 16.1211 120.32 15.7501 118.837 15.7501C117.55 15.7501 116.443 16.0343 115.516 16.6027C114.594 17.1652 113.885 17.952 113.389 18.9632C112.898 19.9684 112.653 21.1411 112.653 22.4814C112.653 23.8156 112.898 24.9884 113.389 25.9996C113.885 27.0107 114.594 27.8005 115.516 28.369C116.443 28.9314 117.55 29.2126 118.837 29.2126ZM129.333 29.2126C130.105 29.2126 130.76 29.087 131.299 28.8357C131.843 28.5784 132.322 28.1805 132.735 27.642V28.9434H134.629V22.9929C134.629 22.5741 134.611 22.1882 134.575 21.8352C134.539 21.4762 134.434 21.1261 134.261 20.7851C133.944 20.1449 133.456 19.6842 132.798 19.4029C132.146 19.1217 131.389 18.9811 130.527 18.9811C129.39 18.9811 128.484 19.2294 127.808 19.726C127.132 20.2227 126.674 20.8808 126.435 21.7005L128.409 22.3198C128.571 21.8232 128.855 21.4732 129.262 21.2697C129.669 21.0663 130.09 20.9646 130.527 20.9646C131.185 20.9646 131.67 21.0992 131.981 21.3685C132.292 21.6317 132.469 22.0416 132.511 22.598C131.661 22.7237 130.871 22.8463 130.141 22.966C129.417 23.0797 128.801 23.2203 128.292 23.3878C127.526 23.6511 126.967 24.0251 126.614 24.5097C126.261 24.9884 126.085 25.5807 126.085 26.2868C126.085 26.8193 126.207 27.3069 126.452 27.7497C126.704 28.1925 127.072 28.5485 127.556 28.8177C128.041 29.081 128.633 29.2126 129.333 29.2126ZM129.764 27.4894C129.256 27.4894 128.867 27.3727 128.598 27.1394C128.334 26.906 128.203 26.6129 128.203 26.2598C128.203 25.9427 128.304 25.6854 128.508 25.488C128.717 25.2905 129.007 25.123 129.378 24.9854C129.719 24.8717 130.129 24.773 130.608 24.6892C131.087 24.5995 131.712 24.4948 132.484 24.3751C132.478 24.6025 132.463 24.8567 132.439 25.138C132.415 25.4132 132.358 25.6615 132.268 25.8829C132.196 26.1043 132.056 26.3406 131.846 26.5919C131.643 26.8432 131.368 27.0556 131.021 27.2291C130.674 27.4027 130.255 27.4894 129.764 27.4894ZM136.965 28.9434H139.137V24.0161C139.137 23.4537 139.239 22.954 139.442 22.5173C139.652 22.0805 139.978 21.7424 140.421 21.5031C140.72 21.3296 141.055 21.2279 141.426 21.1979C141.797 21.162 142.129 21.186 142.422 21.2697V19.2504C141.985 19.1845 141.537 19.1935 141.076 19.2773C140.615 19.3551 140.205 19.5166 139.846 19.7619C139.643 19.8876 139.46 20.0402 139.299 20.2197C139.137 20.3932 138.997 20.5876 138.877 20.803V19.2504H136.965V28.9434ZM147.846 29.2126C148.42 29.2126 148.938 29.1259 149.398 28.9523C149.859 28.7788 150.263 28.5365 150.61 28.2254V28.9434H152.522V16.0194H150.341V19.726C150.018 19.4867 149.656 19.3042 149.255 19.1786C148.854 19.0469 148.411 18.9811 147.926 18.9811C147.011 18.9811 146.215 19.2025 145.539 19.6453C144.869 20.088 144.348 20.6953 143.977 21.4672C143.606 22.239 143.421 23.1156 143.421 24.0969C143.421 25.0662 143.603 25.9367 143.968 26.7086C144.333 27.4804 144.848 28.0907 145.512 28.5395C146.176 28.9882 146.954 29.2126 147.846 29.2126ZM148.178 27.274C147.615 27.274 147.152 27.1334 146.787 26.8522C146.422 26.565 146.149 26.1821 145.97 25.7034C145.796 25.2247 145.71 24.6892 145.71 24.0969C145.71 23.5105 145.799 22.978 145.979 22.4993C146.164 22.0147 146.443 21.6317 146.814 21.3505C147.19 21.0633 147.669 20.9197 148.25 20.9197C149.075 20.9197 149.674 21.2129 150.045 21.7993C150.421 22.3856 150.61 23.1515 150.61 24.0969C150.61 25.0362 150.421 25.8021 150.045 26.3945C149.674 26.9808 149.051 27.274 148.178 27.274Z" fill="#5C5F66"/>
<defs>
<clipPath id="clip0">
<rect width="43.2034" height="43.2034" fill="white" transform="translate(0.601562 0.898315)"/>
</clipPath>
</defs>
</svg>
