<svg width="19" height="19" viewBox="0 0 19 19" fill="none" xmlns="http://www.w3.org/2000/svg">
<path d="M9.49999 4.89329C6.95067 4.89329 4.89325 6.95072 4.89325 9.50003C4.89325 12.0493 6.95067 14.1068 9.49999 14.1068C12.0493 14.1068 14.1067 12.0493 14.1067 9.50003C14.1067 6.95072 12.0493 4.89329 9.49999 4.89329ZM9.49999 12.4941C7.85136 12.4941 6.50595 11.1487 6.50595 9.50003C6.50595 7.8514 7.85136 6.50599 9.49999 6.50599C11.1486 6.50599 12.494 7.8514 12.494 9.50003C12.494 11.1487 11.1486 12.4941 9.49999 12.4941ZM14.2954 3.63099C13.7002 3.63099 13.2195 4.11165 13.2195 4.70687C13.2195 5.30208 13.7002 5.78275 14.2954 5.78275C14.8906 5.78275 15.3713 5.30433 15.3713 4.70687C15.3715 4.56553 15.3438 4.42555 15.2897 4.29494C15.2357 4.16433 15.1565 4.04565 15.0566 3.94571C14.9566 3.84577 14.8379 3.76653 14.7073 3.71253C14.5767 3.65852 14.4367 3.63081 14.2954 3.63099ZM18.4799 9.50003C18.4799 8.26019 18.4911 7.03158 18.4215 5.79398C18.3519 4.35648 18.0239 3.0807 16.9727 2.02953C15.9193 0.976107 14.6458 0.650424 13.2083 0.580795C11.9684 0.511166 10.7398 0.522397 9.50224 0.522397C8.26239 0.522397 7.03378 0.511166 5.79618 0.580795C4.35868 0.650424 3.0829 0.978354 2.03172 2.02953C0.978305 3.08294 0.652621 4.35648 0.582992 5.79398C0.513363 7.03382 0.524594 8.26244 0.524594 9.50003C0.524594 10.7376 0.513363 11.9685 0.582992 13.2061C0.652621 14.6436 0.980551 15.9194 2.03172 16.9705C3.08514 18.024 4.35868 18.3496 5.79618 18.4193C7.03602 18.4889 8.26464 18.4777 9.50224 18.4777C10.7421 18.4777 11.9707 18.4889 13.2083 18.4193C14.6458 18.3496 15.9216 18.0217 16.9727 16.9705C18.0262 15.9171 18.3519 14.6436 18.4215 13.2061C18.4934 11.9685 18.4799 10.7399 18.4799 9.50003ZM16.5033 14.7963C16.3394 15.2051 16.1417 15.5106 15.825 15.825C15.5083 16.1417 15.2051 16.3394 14.7963 16.5034C13.6148 16.9728 10.8095 16.8672 9.49999 16.8672C8.19052 16.8672 5.3829 16.9728 4.20145 16.5056C3.79266 16.3416 3.48719 16.144 3.17274 15.8273C2.85604 15.5106 2.65838 15.2074 2.49442 14.7986C2.02723 13.6149 2.1328 10.8095 2.1328 9.50003C2.1328 8.19056 2.02723 5.38294 2.49442 4.2015C2.65838 3.79271 2.85604 3.48724 3.17274 3.17279C3.48944 2.85833 3.79266 2.65843 4.20145 2.49447C5.3829 2.02728 8.19052 2.13285 9.49999 2.13285C10.8095 2.13285 13.6171 2.02728 14.7985 2.49447C15.2073 2.65843 15.5128 2.85609 15.8272 3.17279C16.1439 3.48949 16.3416 3.79271 16.5056 4.2015C16.9727 5.38294 16.8672 8.19056 16.8672 9.50003C16.8672 10.8095 16.9727 13.6149 16.5033 14.7963Z" fill="white"/>
</svg>
