<svg width="19" height="19" viewBox="0 0 19 19" fill="none" xmlns="http://www.w3.org/2000/svg">
<path d="M2.98292 5.19704C4.19132 5.19704 5.17092 4.21744 5.17092 3.00904C5.17092 1.80065 4.19132 0.821045 2.98292 0.821045C1.77452 0.821045 0.794922 1.80065 0.794922 3.00904C0.794922 4.21744 1.77452 5.19704 2.98292 5.19704Z" fill="white"/>
<path d="M7.23673 6.85493V18.9939H11.0057V12.9909C11.0057 11.4069 11.3037 9.87293 13.2677 9.87293C15.2047 9.87293 15.2287 11.6839 15.2287 13.0909V18.9949H18.9997V12.3379C18.9997 9.06793 18.2957 6.55493 14.4737 6.55493C12.6387 6.55493 11.4087 7.56193 10.9057 8.51493H10.8547V6.85493H7.23673ZM1.09473 6.85493H4.86973V18.9939H1.09473V6.85493Z" fill="white"/>
</svg>
