<svg width="40" height="40" viewBox="0 0 40 40" fill="none" xmlns="http://www.w3.org/2000/svg">
<path fill-rule="evenodd" clip-rule="evenodd" d="M20.0003 6.66699C16.317 6.66699 13.3337 9.65033 13.3337 13.3337C13.3337 17.017 16.317 20.0003 20.0003 20.0003C23.6837 20.0003 26.667 17.017 26.667 13.3337C26.667 9.65033 23.6837 6.66699 20.0003 6.66699ZM23.5003 13.3337C23.5003 11.4003 21.9337 9.83366 20.0003 9.83366C18.067 9.83366 16.5003 11.4003 16.5003 13.3337C16.5003 15.267 18.067 16.8337 20.0003 16.8337C21.9337 16.8337 23.5003 15.267 23.5003 13.3337ZM30.167 28.3337C30.167 27.267 24.9503 24.8337 20.0003 24.8337C15.0503 24.8337 9.83366 27.267 9.83366 28.3337V30.167H30.167V28.3337ZM6.66699 28.3337C6.66699 23.9003 15.5503 21.667 20.0003 21.667C24.4503 21.667 33.3337 23.9003 33.3337 28.3337V33.3337H6.66699V28.3337Z" fill="#8993A4"/>
</svg>
