<svg width="40" height="40" viewBox="0 0 40 40" fill="none" xmlns="http://www.w3.org/2000/svg">
<path fill-rule="evenodd" clip-rule="evenodd" d="M15.0003 36.6663H30.0003C31.3837 36.6663 32.567 35.833 33.067 34.633L38.1003 22.883C38.2503 22.4997 38.3337 22.0997 38.3337 21.6663V18.333C38.3337 16.4997 36.8337 14.9997 35.0003 14.9997H24.4837L26.067 7.38301L26.117 6.84967C26.117 6.16634 25.8337 5.53301 25.3837 5.08301L23.617 3.33301L12.6337 14.3163C12.0337 14.9163 11.667 15.7497 11.667 16.6663V33.333C11.667 35.1663 13.167 36.6663 15.0003 36.6663ZM15.0003 16.6663L22.2337 9.43301L20.0003 18.333H35.0003V21.6663L30.0003 33.333H15.0003V16.6663ZM8.33366 16.6663H1.66699V36.6663H8.33366V16.6663Z" fill="#8993A4"/>
</svg>
