<svg width="32" height="32" viewBox="0 0 32 32" fill="none" xmlns="http://www.w3.org/2000/svg">
<path fill-rule="evenodd" clip-rule="evenodd" d="M16.0003 2.66699C8.66699 2.66699 2.66699 8.66699 2.66699 16.0003C2.66699 23.3337 8.66699 29.3337 16.0003 29.3337C23.3337 29.3337 29.3337 23.3337 29.3337 16.0003C29.3337 8.66699 23.3337 2.66699 16.0003 2.66699ZM16.0003 26.667C10.1203 26.667 5.33366 21.8803 5.33366 16.0003C5.33366 10.1203 10.1203 5.33366 16.0003 5.33366C21.8803 5.33366 26.667 10.1203 26.667 16.0003C26.667 21.8803 21.8803 26.667 16.0003 26.667ZM14.667 9.33366H16.667V16.267L22.667 19.867L21.6003 21.6003L14.667 17.3337V9.33366Z" fill="#8993A4"/>
</svg>
