<svg width="21" height="16" viewBox="0 0 21 16" fill="none" xmlns="http://www.w3.org/2000/svg">
<path d="M10.2008 0.999023H10.3135C11.355 1.00282 16.6321 1.04084 18.055 1.42347C18.4851 1.54025 18.8771 1.76788 19.1917 2.0836C19.5063 2.39932 19.7326 2.79208 19.8478 3.22264C19.9758 3.7041 20.0657 4.34141 20.1266 4.99899L20.1392 5.13076L20.1671 5.46019L20.1772 5.59196C20.2596 6.75001 20.2697 7.83458 20.271 8.07151V8.16654C20.2697 8.41234 20.2583 9.57039 20.1671 10.7766L20.157 10.9096L20.1456 11.0414C20.0822 11.7661 19.9885 12.4858 19.8478 13.0154C19.7329 13.4461 19.5068 13.8391 19.1921 14.1549C18.8775 14.4706 18.4853 14.6981 18.055 14.8146C16.5852 15.2099 10.999 15.2378 10.2248 15.239H10.0449C9.6534 15.239 8.03415 15.2314 6.33635 15.1731L6.12096 15.1655L6.01073 15.1605L5.79407 15.1516L5.57741 15.1427C4.17102 15.0806 2.83178 14.9806 2.21475 14.8133C1.78458 14.697 1.39253 14.4697 1.07788 14.1541C0.76323 13.8386 0.537021 13.4459 0.421917 13.0154C0.281278 12.4871 0.187518 11.7661 0.124168 11.0414L0.114032 10.9084L0.103895 10.7766C0.041365 9.91806 0.00671502 9.05772 0 8.19694L0 8.0411C0.00253403 7.76869 0.0126702 6.8273 0.0810891 5.78835L0.0899582 5.65784L0.0937592 5.59196L0.103895 5.46019L0.13177 5.13076L0.14444 4.99899C0.205257 4.34141 0.295215 3.70284 0.423184 3.22264C0.538094 2.79191 0.764217 2.39896 1.07888 2.08319C1.39355 1.76741 1.78569 1.5399 2.21601 1.42347C2.83305 1.25876 4.17229 1.1574 5.57867 1.09405L5.79407 1.08518L6.01199 1.07758L6.12096 1.07378L6.33762 1.06491C7.54345 1.02611 8.74977 1.00456 9.95622 1.00029H10.2008V0.999023ZM8.10891 5.06615V11.1706L13.3759 8.11966L8.10891 5.06615Z" fill="white"/>
</svg>
